<?xml version="1.0" encoding="utf-8"?>
<!-- Generator: Adobe Illustrator 22.0.0, SVG Export Plug-In . SVG Version: 6.00 Build 0)  -->
<svg version="1.1" id="Layer_1" xmlns="http://www.w3.org/2000/svg" xmlns:xlink="http://www.w3.org/1999/xlink" x="0px" y="0px"
	 viewBox="0 0 251.1 324.2" style="enable-background:new 0 0 251.1 324.2;" xml:space="preserve">
<style type="text/css">
	.st0{fill:#325C80;}
	.st1{fill:#162B38;}
	.st2{fill:#C4E4F8;}
	.st3{fill:#FFFFFF;}
	.st4{fill:#1B3649;}
	.st5{fill:#5F93CE;}
</style>
<g id="XMLID_1333_">
	<path id="XMLID_2425_" class="st0" d="M184.9,141.5c-0.3-1.2-0.6-2.4-0.9-3.5c-2-6.1-6-11-9.2-16.5c-5.9-10.1-10.9-20.3-23.1-23.8
		c-6.4-1.8-13.5-1.9-20-1.9c-6.3-0.1-12.9,0-19.2,1.3c-0.6,0.1-1.2,0.3-1.7,0.4c-4.4-3.6-12.8-1.9-12.3,5.4c0,0.8,0.1,1.5,0.1,2.3
		c-3.8,4.5-5.7,10.5-3.9,17c0.5,1.7,1.5,3.1,2.8,4c-0.7,3-1.8,5.9-3.3,8.6c-2.2,3.8-5.2,7.3-9.2,9.3c-5,2.5-10.9,0.4-11.7,6.5
		c-1.1,7.7,4.2,13.2,4.2,24.8c0,1.2,0.2,11.1,0.6,12.3c-1.6,1.6,0.9,3.9,1.4,6.8c3.4,17.1,1.2,5.2,8.5,22.4
		c3,6.9,16.2,30.2,23.2,32.5c6.1,4.3,9.4,8,13.2,6.8c12-3.8,16.4,1.5,21.6-1c5.3-2.5,11.6-6.4,15.6-10.6c8.3-8.8,6.8-14.6,14.2-25
		c3.5-4.9,7.4-14.5,8.8-20.4c1.4-5.7,2.4-16.4,2-22.2c-0.5-9,3.8-12.3,5.7-22.7c0.3-0.3,0.6-0.5,0.9-0.8
		C200,147.5,191.9,138.7,184.9,141.5z"/>
	<path id="XMLID_2424_" class="st1" d="M54.3,136.8"/>
	<g id="XMLID_2421_">
		<path id="XMLID_2423_" class="st2" d="M103.3,105.4c-0.1-0.3-0.2-0.5-0.3-0.7c-0.2-3.2,0.5-6.5,0.7-9.7c0.2-4.8-3.5-7.3-7.3-7.3
			c-0.1-0.4-0.3-0.8-0.5-1.2c0.4-0.9,0.7-1.8,0.9-2.7c2-8.6-3-18.2-7.3-25.2c-3.2-5.2-9-13.9-15.9-15.6c-0.3-1.2-0.6-2.4-0.8-3.6
			c-0.6-3.4-4.2-5.5-7.5-5.5c0-0.5,0.1-0.9,0.1-1.4c0.8-9.6-14.2-9.6-15,0c-1.4,18.2-2.1,36.6-1.9,54.9c0.1,9.2,0.4,18.3,0.9,27.4
			c0.4,7.4,0,16.5,4.2,22.9c5.3,8.1,21.6,20.7,28.3,6c1.4-3,1.8-6.8,2-10.1c1.9,1,3.9,1.8,5.9,2.3c7.4,1.8,12.2-3.6,12.1-10.6
			c0-1.8-0.2-3.7-0.5-5.5c1.1-1,2-2.4,2.7-4.3c0.8-2.2,0.8-4.8,0.2-7.1C104.2,107.3,103.7,106.3,103.3,105.4z"/>
		<path id="XMLID_2422_" class="st2" d="M217,86.9c-0.2-16.6-1.7-33.2-4.1-49.6c-0.4-2.6-1.1-6.7-3.5-7.5
			c-2.2-5.3-11.5-5.5-14.5,1.1c-3.7,8.1-10.6,14-14.1,22.2c-2.8,6.6-4.3,13.8-5.7,20.9c-3.1,0.5-5.8,2.9-5.7,7.1
			c0,1.9,0.1,3.8,0.3,5.6c0.2,3.7,0.4,7.3,0.7,11c-0.1,0.3-0.1,0.7-0.2,1c-1,4.8-3,10.3-2.8,15.2c0.2,6.4,5.4,12.3,10.4,16.3
			c0.6,0.9,1.3,1.8,2.1,2.7c1.7,1.9,3.8,3.6,6,4.8c1.1,0.5,2.2,1,3.3,1.4c-0.1,0.5-0.1,0.9-0.1,1.4c0.1,3.2,1.6,5.5,3.6,7.8
			c3.9,4.4,1.7,9.5,12.5-3.3c2-2.3,1.7-5.9,2.4-8.8c2-1.4,3.5-3.6,3.2-6.1c-0.4-3.1,1.4-5.4,2.7-8.2c1.7-3.7,2.5-7.3,2.9-11.3
			C217.3,102.8,217.1,94.8,217,86.9z"/>
	</g>
	<path id="XMLID_2420_" class="st1" d="M66.9,153.4c0,0-9.7,0.5-23.1-19.3c0,0-1.5-2.1-0.5-5.7c0,0,2.1-10.7,0.4-16
		c0,0-3.1-14.1-3.4-18.3c0,0-1-29,0.7-35.7c0,0,9.7-35,13.6-38.1c0,0,4.6-3.7,10.6,1.3c0,0,8.4,4.6,29.4,39.1c0,0,2.9,4.4,7,17.2
		c0,0,1.9,8.3,3.6,20.5c0,0,20.8-7.9,53.3,0c0,0,2.7-20.2,11.7-37.6c0,0,4.4-8.5,6.8-11.7c0,0,16.7-25.8,24.1-29.7
		c0,0,7-3.6,9.9,1.9c0,0,10.3,30.5,11.7,38.2c0,0,1.6,11.7,0.7,35.1c0,0-0.6,9.4-2.7,35.6c0,0-0.4,4.9-6.9,11.2
		c0,0-9.5,9.9-16.8,11.8c0,0,17.8-15.1,17.6-56.3c0,0-0.5-72.1-9.3-66.1c0,0-21.3,14.5-26.9,34.2c0,0-12.2,35.1-8.3,60.8
		c0,0-8.6-9.1-11.5-23.1c0,0-29.9-9.8-52.4,0c0,0,0.3,7.8-2,13.9c0,0-14.2-67.6-43.1-84.8c0,0-3.2-2.6-7.4,14.3
		c0,0-1.7,9.3-1.7,14.7c0,0,2.1,28,3.2,31.1c0,0,7.5,23.2,2.7,36.3C57.9,127.9,56.3,138.7,66.9,153.4z"/>
	<path id="XMLID_2419_" class="st1" d="M61.3,144.6c0,0,25,17.3,19.6-13.4c0,0,10,9.9,20.2,0.8C101.1,132.1,60.3,170,61.3,144.6z"/>
	<path id="XMLID_2418_" class="st1" d="M169.3,117.2c0,0-0.5,16.8,22.4,13.8c0,0-2.3,14.1,3.7,21.5
		C195.4,152.6,158.9,120.7,169.3,117.2z"/>
	<path id="XMLID_2417_" class="st1" d="M61,151.5c0,0,14.8,9.1,15.6,16.5c0,0-2.5-16.1-3.4-17.4L61,151.5z"/>
	<path id="XMLID_2416_" class="st1" d="M198.6,152.5c0,0-5.2,4-9.9,13.7c0,0,3.3-8,3.7-15.5c0.1-2.5-3.5-3.8-0.6-7
		C191.8,143.7,194.5,153.4,198.6,152.5z"/>
	<path id="XMLID_2415_" class="st1" d="M77.4,175.4c0,0-0.1,23.2,1.4,25.8c0,0,7.1,12.3,9.5,16.4C88.4,217.6,78.4,198.5,77.4,175.4z
		"/>
	<path id="XMLID_2414_" class="st1" d="M186.8,177.6c0,0,0.1,23.2-1.4,25.8c0,0-7.1,12.3-9.5,16.4
		C175.8,219.8,185.8,200.7,186.8,177.6z"/>
	<g id="XMLID_2408_">
		<polygon id="XMLID_2413_" class="st1" points="94.3,224.1 65.1,232 94.7,225 		"/>
		<polygon id="XMLID_2412_" class="st1" points="103.1,241.2 87.1,256.5 103.8,242 		"/>
		<polygon id="XMLID_2411_" class="st1" points="96.5,227.8 64.2,240.1 97,228.6 		"/>
		<polygon id="XMLID_2410_" class="st1" points="99.9,236.6 72.3,257.5 100.4,237.4 		"/>
		<polygon id="XMLID_2409_" class="st1" points="97.8,232 61.2,253.4 98.3,232.8 		"/>
	</g>
	<g id="XMLID_2400_">
		<polygon id="XMLID_2407_" class="st1" points="171.1,224.6 200.4,232.5 170.7,225.5 		"/>
		<polygon id="XMLID_2406_" class="st1" points="162.3,241.7 178.4,256.9 161.7,242.4 		"/>
		<polygon id="XMLID_2404_" class="st1" points="168.9,228.2 201.2,240.5 168.4,229 		"/>
		<polygon id="XMLID_2402_" class="st1" points="165.6,237 193.1,257.9 165,237.8 		"/>
		<polygon id="XMLID_2401_" class="st1" points="167.7,232.5 204.2,253.8 167.2,233.3 		"/>
	</g>
	<path id="XMLID_2399_" class="st1" d="M131.3,156.6c0,0-3.1-11.8-7.4-24.2c-4.2-12.2-9.6-25-8.9-25.6c0,0,0.4-3,7.3,12.2
		c0,0-9.2-25.4-6.8-21.9c0,0,3.3,6.1,8.3,17.3c0,0-10.7-44.6-6.1-40.1c0,0,2,5.8,6.5,24c0,0.1,0.1,0.3,0.1,0.4
		c4.6,18.4-5.1-39.3-1.6-35.1c0,0,3.6,5.9,5.8,28.2c0,0-3.2-48.5-0.1-41.3c0,0,1.7,17.2,2.9,40.8c0,0-0.6-33.3,1.8-30.6
		c0,0,2.7-0.2,1,33.8c0,0,3.1-32.6,5.4-29.8c0,0,1.5,9.5-2.6,41.4c0,0,6.3-28.7,9.8-26.1c0,0,2.6-2-8.2,33.9c0,0,9.2-15.8,9.4-12.7
		c0,0,0.4,2.8-7.6,17.9c0,0,8-10.2,7.6-7.8c0,0-10.2,18.5-14.2,44.8C133.5,156.1,132.9,159.9,131.3,156.6z"/>
	<path id="XMLID_2398_" class="st1" d="M119.9,247.5c0,0,11.5,4,12.9,3.5c0,0,10.3-2.4,12.3-3.5c0,0-10.9,2.5-12.9,2.1
		C132.2,249.7,128.1,249.5,119.9,247.5z"/>
	<path id="XMLID_2397_" class="st1" d="M146,235.7c-5,0-9.1-1.5-9.1-3.4c0-1.9,4.1-3.4,9.1-3.4c1.2,0,2.3,0.1,3.3,0.2l-0.5-4.5
		c0,0-3.7-6.9-8.6-7.2c0,0-4.7,0.8-6.7,1.4c-2-0.6-6.7-1.4-6.7-1.4c-4.9,0.3-8.6,7.2-8.6,7.2l-0.5,5.1c1.2-0.6,2.9-0.9,4.7-0.9
		c3.8,0,6.9,1.5,6.9,3.4s-3.1,3.4-6.9,3.4c-1.7,0-3.2-0.3-4.4-0.8l3,5.7c0.8,1.6,1.8,2.1,1.8,2.1l10.2,1.9c0.2,0,0.4,0,0.6,0h0
		c0.3,0,0.5,0,0.6,0l10.2-1.9c0,0,1-0.5,1.8-2.1l2.6-5C147.9,235.6,147,235.7,146,235.7z"/>
	<path id="XMLID_2396_" class="st1" d="M101.9,154.4c0,0,17.4,2.8,23.8,23.8C125.7,178.3,123.4,152.5,101.9,154.4z"/>
	<path id="XMLID_2395_" class="st1" d="M161.2,153.1c0,0-17.4,2.8-23.8,23.8C137.5,177,139.7,151.2,161.2,153.1z"/>
	<path id="XMLID_2394_" class="st1" d="M124.9,182.2c0,0-0.2,17.5-13.2,36C111.8,218.1,123,194.4,124.9,182.2z"/>
	<path id="XMLID_2393_" class="st1" d="M138.6,183.3c0,0,0.4,17.5,13.5,35.9C152.1,219.1,140.7,195.5,138.6,183.3z"/>
	<g id="XMLID_2323_">
		<path id="XMLID_2392_" class="st1" d="M109,167.5c0,0,5.9,6.8,8.6,8.3c0,0-5.6,6.7-16.6,8.5C101.1,184.3,112,169.8,109,167.5z"/>
		<g id="XMLID_2335_">
			<ellipse id="XMLID_2391_" class="st3" cx="101.5" cy="174.1" rx="10.3" ry="9.2"/>
			<path id="XMLID_2384_" class="st1" d="M87.1,169.4c0,0,14-12.3,23.6,0C110.7,169.4,102.8,162.9,87.1,169.4z"/>
			<path id="XMLID_2365_" class="st1" d="M114.2,178.8c0,0-13.2,19.5-25.3-0.1C88.9,178.7,100.3,188.8,114.2,178.8z"/>
			<ellipse id="XMLID_2360_" class="st1" cx="101.9" cy="173.3" rx="8.2" ry="8.4"/>
			<circle id="XMLID_2348_" class="st3" cx="106" cy="172.5" r="2.9"/>
		</g>
	</g>
	<g id="XMLID_2314_">
		<path id="XMLID_2322_" class="st1" d="M156,168.7c0,0-5.9,6.8-8.6,8.3c0,0,5.6,6.7,16.6,8.5C163.9,185.6,153,171.1,156,168.7z"/>
		<g id="XMLID_2315_">
			<ellipse id="XMLID_2321_" class="st3" cx="163.5" cy="175.3" rx="10.3" ry="9.2"/>
			<path id="XMLID_2320_" class="st1" d="M177.9,170.7c0,0-14-12.3-23.6,0C154.3,170.7,162.2,164.1,177.9,170.7z"/>
			<path id="XMLID_2319_" class="st1" d="M150.8,180.1c0,0,13.2,19.5,25.3-0.1C176.1,180,164.7,190,150.8,180.1z"/>
			<ellipse id="XMLID_2317_" class="st1" cx="163.1" cy="174.5" rx="8.2" ry="8.4"/>
			<circle id="XMLID_2316_" class="st3" cx="159" cy="173.7" r="2.9"/>
		</g>
	</g>
	<path id="XMLID_2308_" class="st1" d="M135,166.2c0,0-0.2-25.4,10.3-28.2C145.4,137.9,139.2,141.1,135,166.2z"/>
	<path id="XMLID_2304_" class="st1" d="M140.2,158.6c0,0,2.4-14.7,14.5-13.6C154.7,145,145.9,146,140.2,158.6z"/>
	<path id="XMLID_2303_" class="st1" d="M129,165.9c0,0,0.2-25.4-10.3-28.2C118.7,137.7,124.9,140.8,129,165.9z"/>
	<path id="XMLID_1387_" class="st1" d="M123.9,158.3c0,0-2.4-14.7-14.5-13.6C109.4,144.7,118.2,145.7,123.9,158.3z"/>
	<path id="XMLID_1386_" class="st1" d="M96.2,154.9c0,0-11,1.1-14.7,9.2C81.5,164.1,82.7,154,96.2,154.9z"/>
	<path id="XMLID_1385_" class="st1" d="M167.2,154c0,0,11,1.1,14.7,9.2C181.9,163.2,180.7,153.1,167.2,154z"/>
	<path id="XMLID_1384_" class="st1" d="M92,189.4c0,0,8.4,6.5,18.1,0C110.1,189.4,100.1,199.2,92,189.4z"/>
	<path id="XMLID_1383_" class="st1" d="M153.5,189.4c0,0,8.4,6.5,18.1,0C171.7,189.4,161.6,199.2,153.5,189.4z"/>
	<g id="XMLID_1359_">
		<path id="XMLID_1379_" class="st4" d="M65.6,280.2c0,2.7-1.3,5.2-4.5,6.6c4,1.2,5.5,5.5,5.5,7.7c0,7.7-5.7,10.1-12.9,10.1
			c-5.5,0-10.9,0-16.3,0v-34.4c5.4,0,10.9,0,16.3,0C60.5,270.2,65.6,273.3,65.6,280.2z M43.8,284h9.9c4.1,0,5.4-1.7,5.4-3.7
			c0-1.6-1.3-4.2-5.4-4.2h-9.9V284z M43.8,298.6h9.9c2.7,0,6.4-0.9,6.4-4.1c0-3.1-3.8-4.7-6.4-4.7h-9.9V298.6z"/>
		<path id="XMLID_1377_" class="st4" d="M76.7,270.3v34.3h-5.9v-34.3H76.7z"/>
		<path id="XMLID_1375_" class="st4" d="M88.1,280.4v12.7c0,3.7,2,6.5,5.8,6.5c3.7,0,6.2-3.1,6.2-6.8v-12.4h5.9v24.3h-5.4l-0.4-3.3
			c-2.5,2.5-4.8,3.6-8.2,3.6c-5.8,0-10-4.4-10-11.9v-12.7H88.1z"/>
		<path id="XMLID_1373_" class="st5" d="M159.1,258.2h6.9l-6.3,10l-11.6,16.7l12,17.2v0.2h-7.3l-8.8-12.9l-13.2,19.2h-7.4l4.5-6.5
			l11.9-17.2l-11.6-16.7v-0.3h7.1l8.6,12.8L159.1,258.2z"/>
		<g id="XMLID_1369_">
			<path id="XMLID_1370_" class="st4" d="M124.7,299.7c-0.4,0-0.7,0.1-1.1,0.1c-4.2,0-6.8-2.2-7.2-5.2h11.8l6-8.6
				c-1.9-4.2-5.9-6.4-11.1-6.4c-7.9,0-12.9,5.3-12.9,12.7c0,6.9,4,11.8,10.8,12.7L124.7,299.7z M116.6,289.7
				c0.9-3.1,3.5-4.7,6.8-4.7c3.4,0,5.9,1.6,6.3,4.7H116.6z"/>
		</g>
		<path id="XMLID_1366_" class="st4" d="M186.5,290.2c0,7-4.8,12.6-12.6,12.6c-7.9,0-12.6-5.7-12.6-12.6c0-6.9,4.8-12.6,12.5-12.6
			S186.5,283.3,186.5,290.2z M167.3,290.2c0,3.7,2.2,7.1,6.6,7.1s6.6-3.4,6.6-7.1c0-3.6-2.6-7.2-6.6-7.2
			C169.6,283,167.3,286.6,167.3,290.2z"/>
		<path id="XMLID_1364_" class="st4" d="M196.6,268v34.3h-5.9V268H196.6z"/>
		<path id="XMLID_1361_" class="st4" d="M225.9,290.2c0,7-4.8,12.6-12.6,12.6c-7.9,0-12.6-5.7-12.6-12.6c0-6.9,4.8-12.6,12.5-12.6
			S225.9,283.3,225.9,290.2z M206.7,290.2c0,3.7,2.2,7.1,6.6,7.1s6.6-3.4,6.6-7.1c0-3.6-2.6-7.2-6.6-7.2
			C209,283,206.7,286.6,206.7,290.2z"/>
		<line id="XMLID_1360_" class="st4" x1="134.3" y1="286" x2="128.3" y2="294.7"/>
	</g>
	<path id="XMLID_1358_" class="st1" d="M110.1,248.4c0,0,11.3,10,22.4,5.2C132.5,253.6,125.2,261.8,110.1,248.4z"/>
	<path id="XMLID_1357_" class="st1" d="M155.9,248.4c0,0-11.3,10-22.4,5.2C133.6,253.6,140.8,261.8,155.9,248.4z"/>
</g>
</svg>
