<?xml version="1.0" encoding="utf-8"?>
<!-- Generator: Adobe Illustrator 19.0.0, SVG Export Plug-In . SVG Version: 6.00 Build 0)  -->
<svg version="1.1" id="Layer_1" xmlns="http://www.w3.org/2000/svg" xmlns:xlink="http://www.w3.org/1999/xlink" x="0px" y="0px"
	 viewBox="0 0 251.1 324.2" style="enable-background:new 0 0 251.1 324.2;" xml:space="preserve">
<style type="text/css">
	.st0{fill:#325C80;}
	.st1{fill:#162B38;}
	.st2{fill:#C4E4F8;}
	.st3{fill:#FFFFFF;}
</style>
<g id="XMLID_1333_">
	<path id="XMLID_2425_" class="st0" d="M178.8,158.4c-0.3-1.2-0.6-2.4-0.9-3.5c-2-6.1-6-11-9.2-16.5c-5.9-10.1-10.9-20.3-23.1-23.8
		c-6.4-1.8-13.5-1.9-20-1.9c-6.3-0.1-12.9,0-19.2,1.3c-0.6,0.1-1.2,0.3-1.7,0.4c-4.4-3.6-12.8-1.9-12.3,5.4c0,0.8,0.1,1.5,0.1,2.3
		c-3.8,4.5-5.7,10.5-3.9,17c0.5,1.7,1.5,3.1,2.8,4c-0.7,3-1.8,5.9-3.3,8.6c-2.2,3.8-5.2,7.3-9.2,9.3c-5,2.5-10.9,0.4-11.7,6.5
		c-1.1,7.7,4.2,13.2,4.2,24.8c0,1.2,0.2,11.1,0.6,12.3c-1.6,1.6,0.9,3.9,1.4,6.8c3.4,17.1,1.2,5.2,8.5,22.4
		c3,6.9,16.2,30.2,23.2,32.5c6.1,4.3,9.4,8,13.2,6.8c12-3.8,16.4,1.5,21.6-1c5.3-2.5,11.6-6.4,15.6-10.6c8.3-8.8,6.8-14.6,14.2-25
		c3.5-4.9,7.4-14.5,8.8-20.4c1.4-5.7,2.4-16.4,2-22.2c-0.5-9,3.8-12.3,5.7-22.7c0.3-0.3,0.6-0.5,0.9-0.8
		C194,164.4,185.9,155.6,178.8,158.4z"/>
	<path id="XMLID_2424_" class="st1" d="M48.3,153.7"/>
	<g id="XMLID_2421_">
		<path id="XMLID_2423_" class="st2" d="M97.3,122.3c-0.1-0.3-0.2-0.5-0.3-0.7c-0.2-3.2,0.5-6.5,0.7-9.7c0.2-4.8-3.5-7.3-7.3-7.3
			c-0.1-0.4-0.3-0.8-0.5-1.2c0.4-0.9,0.7-1.8,0.9-2.7c2-8.6-3-18.2-7.3-25.2c-3.2-5.2-9-13.9-15.9-15.6c-0.3-1.2-0.6-2.4-0.8-3.6
			c-0.6-3.4-4.2-5.5-7.5-5.5c0-0.5,0.1-0.9,0.1-1.4c0.8-9.6-14.2-9.6-15,0c-1.4,18.2-2.1,36.6-1.9,54.9c0.1,9.2,0.4,18.3,0.9,27.4
			c0.4,7.4,0,16.5,4.2,22.9c5.3,8.1,21.6,20.7,28.3,6c1.4-3,1.8-6.8,2-10.1c1.9,1,3.9,1.8,5.9,2.3c7.4,1.8,12.2-3.6,12.1-10.6
			c0-1.8-0.2-3.7-0.5-5.5c1.1-1,2-2.4,2.7-4.3c0.8-2.2,0.8-4.8,0.2-7.1C98.1,124.1,97.6,123.2,97.3,122.3z"/>
		<path id="XMLID_2422_" class="st2" d="M210.9,103.8c-0.2-16.6-1.7-33.2-4.1-49.6c-0.4-2.6-1.1-6.7-3.5-7.5
			c-2.2-5.3-11.5-5.5-14.5,1.1c-3.7,8.1-10.6,14-14.1,22.2c-2.8,6.6-4.3,13.8-5.7,20.9c-3.1,0.5-5.8,2.9-5.7,7.1
			c0,1.9,0.1,3.8,0.3,5.6c0.2,3.7,0.4,7.3,0.7,11c-0.1,0.3-0.1,0.7-0.2,1c-1,4.8-3,10.3-2.8,15.2c0.2,6.4,5.4,12.3,10.4,16.3
			c0.6,0.9,1.3,1.8,2.1,2.7c1.7,1.9,3.8,3.6,6,4.8c1.1,0.5,2.2,1,3.3,1.4c-0.1,0.5-0.1,0.9-0.1,1.4c0.1,3.2,1.6,5.5,3.6,7.8
			c3.9,4.4,1.7,9.5,12.5-3.3c2-2.3,1.7-5.9,2.4-8.8c2-1.4,3.5-3.6,3.2-6.1c-0.4-3.1,1.4-5.4,2.7-8.2c1.7-3.7,2.5-7.3,2.9-11.3
			C211.2,119.7,211,111.6,210.9,103.8z"/>
	</g>
	<path id="XMLID_2420_" class="st1" d="M60.8,170.3c0,0-9.7,0.5-23.1-19.3c0,0-1.5-2.1-0.5-5.7c0,0,2.1-10.7,0.4-16
		c0,0-3.1-14.1-3.4-18.3c0,0-1-29,0.7-35.7c0,0,9.7-35,13.6-38.1c0,0,4.6-3.7,10.6,1.3c0,0,8.4,4.6,29.4,39.1c0,0,2.9,4.4,7,17.2
		c0,0,1.9,8.3,3.6,20.5c0,0,20.8-7.9,53.3,0c0,0,2.7-20.2,11.7-37.6c0,0,4.4-8.5,6.8-11.7c0,0,16.7-25.8,24.1-29.7
		c0,0,7-3.6,9.9,1.9c0,0,10.3,30.5,11.7,38.2c0,0,1.6,11.7,0.7,35.1c0,0-0.6,9.4-2.7,35.6c0,0-0.4,4.9-6.9,11.2
		c0,0-9.5,9.9-16.8,11.8c0,0,17.8-15.1,17.6-56.3c0,0-0.5-72.1-9.3-66.1c0,0-21.3,14.5-26.9,34.2c0,0-12.2,35.1-8.3,60.8
		c0,0-8.6-9.1-11.5-23.1c0,0-29.9-9.8-52.4,0c0,0,0.3,7.8-2,13.9c0,0-14.2-67.6-43.1-84.8c0,0-3.2-2.6-7.4,14.3
		c0,0-1.7,9.3-1.7,14.7c0,0,2.1,28,3.2,31.1c0,0,7.5,23.2,2.7,36.2C51.9,144.8,50.3,155.6,60.8,170.3z"/>
	<path id="XMLID_2419_" class="st1" d="M55.2,161.5c0,0,25,17.3,19.6-13.4c0,0,10,9.9,20.2,0.8C95,148.9,54.2,186.9,55.2,161.5z"/>
	<path id="XMLID_2418_" class="st1" d="M163.2,134.1c0,0-0.5,16.8,22.4,13.8c0,0-2.3,14.1,3.7,21.5
		C189.3,169.4,152.9,137.6,163.2,134.1z"/>
	<path id="XMLID_2417_" class="st1" d="M55,168.4c0,0,14.8,9.1,15.6,16.5c0,0-2.5-16.1-3.4-17.4L55,168.4z"/>
	<path id="XMLID_2416_" class="st1" d="M192.6,169.3c0,0-5.2,4-9.9,13.7c0,0,3.3-8,3.7-15.5c0.1-2.5-3.5-3.8-0.6-7
		C185.7,160.5,188.5,170.3,192.6,169.3z"/>
	<path id="XMLID_2415_" class="st1" d="M71.4,192.3c0,0-0.1,23.2,1.4,25.8c0,0,7.1,12.3,9.5,16.4C82.4,234.5,72.3,215.4,71.4,192.3z
		"/>
	<path id="XMLID_2414_" class="st1" d="M180.7,194.5c0,0,0.1,23.2-1.4,25.8c0,0-7.1,12.3-9.5,16.4
		C169.7,236.7,179.8,217.6,180.7,194.5z"/>
	<g id="XMLID_2408_">
		<polygon id="XMLID_2413_" class="st1" points="88.3,241 59,248.9 88.7,241.9 		"/>
		<polygon id="XMLID_2412_" class="st1" points="97.1,258.1 81,273.3 97.7,258.9 		"/>
		<polygon id="XMLID_2411_" class="st1" points="90.5,244.7 58.2,256.9 91,245.5 		"/>
		<polygon id="XMLID_2410_" class="st1" points="93.8,253.5 66.3,274.3 94.4,254.2 		"/>
		<polygon id="XMLID_2409_" class="st1" points="91.7,248.9 55.2,270.3 92.3,249.7 		"/>
	</g>
	<g id="XMLID_2400_">
		<polygon id="XMLID_2407_" class="st1" points="165.1,241.5 194.3,249.4 164.7,242.3 		"/>
		<polygon id="XMLID_2406_" class="st1" points="156.3,258.6 172.3,273.8 155.7,259.3 		"/>
		<polygon id="XMLID_2404_" class="st1" points="162.9,245.1 195.2,257.4 162.4,245.9 		"/>
		<polygon id="XMLID_2402_" class="st1" points="159.5,253.9 187.1,274.8 159,254.7 		"/>
		<polygon id="XMLID_2401_" class="st1" points="161.6,249.4 198.2,270.7 161.1,250.2 		"/>
	</g>
	<path id="XMLID_2399_" class="st1" d="M125.3,173.5c0,0-3.1-11.8-7.4-24.2c-4.2-12.2-9.6-25-8.9-25.6c0,0,0.4-3,7.3,12.2
		c0,0-9.2-25.4-6.8-21.9c0,0,3.3,6.1,8.3,17.3c0,0-10.7-44.6-6.1-40.1c0,0,2,5.8,6.5,24c0,0.1,0.1,0.3,0.1,0.4
		c4.6,18.4-5.1-39.3-1.6-35.1c0,0,3.6,5.9,5.8,28.2c0,0-3.2-48.5-0.1-41.3c0,0,1.7,17.2,2.9,40.8c0,0-0.6-33.3,1.8-30.6
		c0,0,2.7-0.2,1,33.8c0,0,3.1-32.6,5.4-29.8c0,0,1.5,9.5-2.6,41.4c0,0,6.3-28.7,9.8-26.1c0,0,2.6-2-8.2,33.9c0,0,9.2-15.8,9.4-12.7
		c0,0,0.4,2.8-7.6,17.9c0,0,8-10.2,7.6-7.8c0,0-10.2,18.5-14.2,44.8C127.4,173,126.9,176.8,125.3,173.5z"/>
	<path id="XMLID_2398_" class="st1" d="M113.8,264.4c0,0,11.5,4,12.9,3.5c0,0,10.3-2.4,12.3-3.5c0,0-10.9,2.5-12.9,2.1
		C126.1,266.5,122.1,266.4,113.8,264.4z"/>
	<path id="XMLID_2397_" class="st1" d="M140,252.6c-5,0-9.1-1.5-9.1-3.4c0-1.9,4.1-3.4,9.1-3.4c1.2,0,2.3,0.1,3.3,0.2l-0.5-4.5
		c0,0-3.7-6.9-8.6-7.2c0,0-4.7,0.8-6.7,1.4c-2-0.6-6.7-1.4-6.7-1.4c-4.9,0.3-8.6,7.2-8.6,7.2l-0.5,5.1c1.2-0.6,2.9-0.9,4.7-0.9
		c3.8,0,6.9,1.5,6.9,3.4s-3.1,3.4-6.9,3.4c-1.7,0-3.2-0.3-4.4-0.8l3,5.7c0.8,1.6,1.8,2.1,1.8,2.1l10.2,1.9c0.2,0,0.4,0,0.6,0h0
		c0.3,0,0.5,0,0.6,0l10.2-1.9c0,0,1-0.5,1.8-2.1l2.6-5C141.9,252.5,141,252.6,140,252.6z"/>
	<path id="XMLID_2396_" class="st1" d="M95.9,171.3c0,0,17.4,2.8,23.8,23.8C119.7,195.1,117.4,169.4,95.9,171.3z"/>
	<path id="XMLID_2395_" class="st1" d="M155.2,170c0,0-17.4,2.8-23.8,23.8C131.4,193.8,133.7,168.1,155.2,170z"/>
	<path id="XMLID_2394_" class="st1" d="M118.9,199c0,0-0.2,17.5-13.2,36C105.7,235,117,211.3,118.9,199z"/>
	<path id="XMLID_2393_" class="st1" d="M132.6,200.2c0,0,0.4,17.5,13.5,35.9C146.1,236,134.6,212.4,132.6,200.2z"/>
	<g id="XMLID_2323_">
		<path id="XMLID_2392_" class="st1" d="M103,184.4c0,0,5.9,6.8,8.6,8.3c0,0-5.6,6.7-16.6,8.5C95,201.2,105.9,186.7,103,184.4z"/>
		<g id="XMLID_2335_">
			<ellipse id="XMLID_2391_" class="st3" cx="95.4" cy="190.9" rx="10.3" ry="9.2"/>
			<path id="XMLID_2384_" class="st1" d="M81.1,186.3c0,0,14-12.3,23.6,0C104.6,186.3,96.7,179.8,81.1,186.3z"/>
			<path id="XMLID_2365_" class="st1" d="M108.2,195.7c0,0-13.2,19.5-25.3-0.1C82.8,195.6,94.3,205.7,108.2,195.7z"/>
			<ellipse id="XMLID_2360_" class="st1" cx="95.9" cy="190.2" rx="8.2" ry="8.4"/>
			<circle id="XMLID_2348_" class="st3" cx="99.9" cy="189.4" r="2.9"/>
		</g>
	</g>
	<g id="XMLID_2314_">
		<path id="XMLID_2322_" class="st1" d="M149.9,185.6c0,0-5.9,6.8-8.6,8.3c0,0,5.6,6.7,16.6,8.5C157.9,202.4,147,187.9,149.9,185.6z
			"/>
		<g id="XMLID_2315_">
			<ellipse id="XMLID_2321_" class="st3" cx="157.5" cy="192.2" rx="10.3" ry="9.2"/>
			<path id="XMLID_2320_" class="st1" d="M171.8,187.5c0,0-14-12.3-23.6,0C148.3,187.5,156.1,181,171.8,187.5z"/>
			<path id="XMLID_2319_" class="st1" d="M144.7,197c0,0,13.2,19.5,25.3-0.1C170,196.8,158.6,206.9,144.7,197z"/>
			<ellipse id="XMLID_2317_" class="st1" cx="157" cy="191.4" rx="8.2" ry="8.4"/>
			<circle id="XMLID_2316_" class="st3" cx="153" cy="190.6" r="2.9"/>
		</g>
	</g>
	<path id="XMLID_2308_" class="st1" d="M129,183.1c0,0-0.2-25.4,10.3-28.2C139.3,154.8,133.1,158,129,183.1z"/>
	<path id="XMLID_2304_" class="st1" d="M134.2,175.5c0,0,2.4-14.7,14.5-13.6C148.7,161.9,139.8,162.9,134.2,175.5z"/>
	<path id="XMLID_2303_" class="st1" d="M123,182.8c0,0,0.2-25.4-10.3-28.2C112.6,154.5,118.9,157.7,123,182.8z"/>
	<path id="XMLID_1387_" class="st1" d="M117.8,175.2c0,0-2.4-14.7-14.5-13.6C103.3,161.6,112.2,162.6,117.8,175.2z"/>
	<path id="XMLID_1386_" class="st1" d="M90.2,171.8c0,0-11,1.1-14.7,9.2C75.5,181,76.6,170.9,90.2,171.8z"/>
	<path id="XMLID_1385_" class="st1" d="M161.1,170.9c0,0,11,1.1,14.7,9.2C175.8,180.1,174.7,170,161.1,170.9z"/>
	<path id="XMLID_1384_" class="st1" d="M86,206.3c0,0,8.4,6.5,18.1,0C104.1,206.3,94.1,216,86,206.3z"/>
	<path id="XMLID_1383_" class="st1" d="M147.5,206.3c0,0,8.4,6.5,18.1,0C165.6,206.3,155.6,216,147.5,206.3z"/>
	<path id="XMLID_1358_" class="st1" d="M104.1,265.3c0,0,11.3,10,22.4,5.2C126.5,270.5,119.2,278.7,104.1,265.3z"/>
	<path id="XMLID_1357_" class="st1" d="M149.9,265.3c0,0-11.3,10-22.4,5.2C127.5,270.5,134.8,278.7,149.9,265.3z"/>
</g>
</svg>
