<?xml version="1.0" encoding="utf-8"?>
<!-- Generator: Adobe Illustrator 19.0.0, SVG Export Plug-In . SVG Version: 6.00 Build 0)  -->
<svg version="1.1" id="Layer_1" xmlns="http://www.w3.org/2000/svg" xmlns:xlink="http://www.w3.org/1999/xlink" x="0px" y="0px"
	 viewBox="0 0 231 78" style="enable-background:new 0 0 231 78;" xml:space="preserve">
<style type="text/css">
	.st0{fill:#1B3649;}
	.st1{fill:#5F93CE;}
</style>
<g id="XMLID_1359_">
	<path id="XMLID_1379_" class="st0" d="M52,36.4c0,2.7-1.3,5.2-4.5,6.6c4,1.2,5.5,5.5,5.5,7.7c0,7.7-5.7,10.1-12.9,10.1
		c-5.5,0-10.9,0-16.3,0V26.4c5.4,0,10.9,0,16.3,0C46.9,26.4,52,29.5,52,36.4z M30.2,40.3h9.9c4.1,0,5.4-1.7,5.4-3.7
		c0-1.6-1.3-4.2-5.4-4.2h-9.9V40.3z M30.2,54.8h9.9c2.7,0,6.4-0.9,6.4-4.1c0-3.1-3.8-4.7-6.4-4.7h-9.9V54.8z"/>
	<path id="XMLID_1377_" class="st0" d="M63.1,26.5v34.3h-5.9V26.5H63.1z"/>
	<path id="XMLID_1375_" class="st0" d="M74.5,36.6v12.7c0,3.7,2,6.5,5.8,6.5c3.7,0,6.2-3.1,6.2-6.8V36.6h5.9v24.3h-5.4l-0.4-3.3
		c-2.5,2.5-4.8,3.6-8.2,3.6c-5.8,0-10-4.4-10-11.9V36.6H74.5z"/>
	<path id="XMLID_1373_" class="st1" d="M145.5,14.4h6.9l-6.3,10l-11.6,16.7l12,17.2v0.2h-7.3l-8.8-12.9l-13.2,19.2h-7.4l4.5-6.5
		l11.9-17.2l-11.6-16.7v-0.3h7.1l8.6,12.8L145.5,14.4z"/>
	<g id="XMLID_1369_">
		<path id="XMLID_1370_" class="st0" d="M111.1,56c-0.4,0-0.7,0.1-1.1,0.1c-4.2,0-6.8-2.2-7.2-5.2h11.8l6-8.6
			c-1.9-4.2-5.9-6.4-11.1-6.4c-7.9,0-12.9,5.3-12.9,12.7c0,6.9,4,11.8,10.8,12.7L111.1,56z M103,45.9c0.9-3.1,3.5-4.7,6.8-4.7
			c3.4,0,5.9,1.6,6.3,4.7H103z"/>
	</g>
	<path id="XMLID_1366_" class="st0" d="M172.9,46.4c0,7-4.8,12.6-12.6,12.6c-7.9,0-12.6-5.7-12.6-12.6c0-6.9,4.8-12.6,12.5-12.6
		S172.9,39.5,172.9,46.4z M153.7,46.4c0,3.7,2.2,7.1,6.6,7.1s6.6-3.4,6.6-7.1c0-3.6-2.6-7.2-6.6-7.2C156,39.2,153.7,42.8,153.7,46.4
		z"/>
	<path id="XMLID_1364_" class="st0" d="M183,24.2v34.3H177V24.2H183z"/>
	<path id="XMLID_1361_" class="st0" d="M212.3,46.4c0,7-4.8,12.6-12.6,12.6c-7.9,0-12.6-5.7-12.6-12.6c0-6.9,4.8-12.6,12.5-12.6
		S212.3,39.5,212.3,46.4z M193.1,46.4c0,3.7,2.2,7.1,6.6,7.1s6.6-3.4,6.6-7.1c0-3.6-2.6-7.2-6.6-7.2
		C195.4,39.2,193.1,42.8,193.1,46.4z"/>
	<line id="XMLID_1360_" class="st0" x1="120.7" y1="42.2" x2="114.7" y2="50.9"/>
</g>
</svg>
